<svg width="36" height="22" viewBox="0 0 36 22" fill="none" xmlns="http://www.w3.org/2000/svg">
<path d="M31.0601 0.664217C28.6263 2.7945 28.3335 6.90163 28.3335 6.90163C5.31266 2.1777 0.689482 19.5069 0.689482 19.5069C0.689482 19.5069 15.8866 29.1243 29.5923 10.1096C29.5923 10.1096 32.6038 12.9315 35.8436 12.8538C35.8436 12.8538 33.0254 10.6968 31.7413 7.42459C30.4578 4.15268 31.0601 0.664217 31.0601 0.664217ZM6.47854 17.047C5.93893 17.257 5.31271 16.9455 5.07966 16.3516C4.84661 15.7578 5.09502 15.1064 5.63463 14.8965C6.17424 14.6865 6.80031 14.9976 7.03336 15.5915C7.26641 16.1853 7.01816 16.8371 6.47854 17.047ZM11.6784 19.7047C11.652 19.8368 11.5659 19.9338 11.4568 19.9763C11.3868 20.0035 11.3061 20.0079 11.2249 19.9826C11.0198 19.9204 10.8891 19.6939 10.9337 19.4777C11.7378 15.5874 8.82144 13.7963 8.69757 13.7219C8.50832 13.6093 8.42969 13.3598 8.52196 13.1647C8.61335 12.9695 8.8403 12.9015 9.02995 13.0131C9.0659 13.0347 12.6125 15.1862 11.6784 19.7047Z" fill="#7A7871"/>
</svg>
