<svg width="474" height="399" viewBox="0 0 474 399" fill="none" xmlns="http://www.w3.org/2000/svg">
<path d="M117.999 55.16L128.191 1.288H143.739L126.943 77H111.239L98.9147 26.352L86.5907 77H70.8867L54.0907 1.288H69.6387L79.8827 55.056L92.3627 1.288H105.571L117.999 55.16ZM192.671 61.4H165.319L160.119 77H143.531L171.715 1.288H186.171L214.511 77H197.923L192.671 61.4ZM169.531 48.764H188.459L178.943 20.424L169.531 48.764ZM272.335 13.924H249.143V77H233.543V13.924H210.663V1.288H272.335V13.924ZM339.259 51.78C338.669 59.9267 335.653 66.34 330.211 71.02C324.803 75.7 317.661 78.04 308.787 78.04C299.08 78.04 291.436 74.7813 285.855 68.264C280.308 61.712 277.535 52.7333 277.535 41.328V36.7C277.535 29.42 278.817 23.0067 281.383 17.46C283.948 11.9133 287.605 7.66667 292.355 4.72C297.139 1.73867 302.685 0.247998 308.995 0.247998C317.731 0.247998 324.768 2.588 330.107 7.268C335.445 11.948 338.531 18.5173 339.363 26.976H323.763C323.381 22.088 322.012 18.552 319.655 16.368C317.332 14.1493 313.779 13.04 308.995 13.04C303.795 13.04 299.895 14.912 297.295 18.656C294.729 22.3653 293.412 28.1373 293.343 35.972V41.692C293.343 49.8733 294.573 55.8533 297.035 59.632C299.531 63.4107 303.448 65.3 308.787 65.3C313.605 65.3 317.193 64.208 319.551 62.024C321.943 59.8053 323.312 56.3907 323.659 51.78H339.259ZM411.123 77H395.523V44.552H365.103V77H349.503V1.288H365.103V31.968H395.523V1.288H411.123V77ZM130.063 115.4L145.819 81.288H162.875L138.019 129.544V157H122.159V129.544L97.3027 81.288H114.411L130.063 115.4ZM230.423 120.86C230.423 128.313 229.105 134.848 226.471 140.464C223.836 146.08 220.057 150.413 215.135 153.464C210.247 156.515 204.631 158.04 198.287 158.04C192.012 158.04 186.413 156.532 181.491 153.516C176.568 150.5 172.755 146.201 170.051 140.62C167.347 135.004 165.977 128.556 165.943 121.276V117.532C165.943 110.079 167.277 103.527 169.947 97.876C172.651 92.1907 176.447 87.84 181.335 84.824C186.257 81.7733 191.873 80.248 198.183 80.248C204.492 80.248 210.091 81.7733 214.979 84.824C219.901 87.84 223.697 92.1907 226.367 97.876C229.071 103.527 230.423 110.061 230.423 117.48V120.86ZM214.615 117.428C214.615 109.489 213.193 103.457 210.351 99.332C207.508 95.2067 203.452 93.144 198.183 93.144C192.948 93.144 188.909 95.1893 186.067 99.28C183.224 103.336 181.785 109.299 181.751 117.168V120.86C181.751 128.591 183.172 134.588 186.015 138.852C188.857 143.116 192.948 145.248 198.287 145.248C203.521 145.248 207.543 143.203 210.351 139.112C213.159 134.987 214.58 128.989 214.615 121.12V117.428ZM299.063 81.288V131.156C299.063 139.441 296.463 145.993 291.263 150.812C286.097 155.631 279.025 158.04 270.047 158.04C261.207 158.04 254.187 155.7 248.987 151.02C243.787 146.34 241.135 139.909 241.031 131.728V81.288H256.631V131.26C256.631 136.217 257.809 139.84 260.167 142.128C262.559 144.381 265.852 145.508 270.047 145.508C278.817 145.508 283.272 140.897 283.411 131.676V81.288H299.063ZM339.883 129.284H327.455V157H311.855V81.288H339.987C348.931 81.288 355.829 83.2813 360.683 87.268C365.536 91.2547 367.963 96.888 367.963 104.168C367.963 109.333 366.836 113.649 364.583 117.116C362.364 120.548 358.984 123.287 354.443 125.332L370.823 156.272V157H354.079L339.883 129.284ZM327.455 116.648H340.039C343.956 116.648 346.989 115.66 349.139 113.684C351.288 111.673 352.363 108.917 352.363 105.416C352.363 101.845 351.34 99.0373 349.295 96.992C347.284 94.9467 344.181 93.924 339.987 93.924H327.455V116.648ZM83.8867 301.4H56.5347L51.3347 317H34.7467L62.9307 241.288H77.3867L105.727 317H89.1387L83.8867 301.4ZM60.7467 288.764H79.6747L70.1587 260.424L60.7467 288.764ZM174.367 317H158.767L128.399 267.184V317H112.799V241.288H128.399L158.819 291.208V241.288H174.367V317ZM204.579 317H188.979V241.288H204.579V317ZM239.471 241.288L258.919 296.2L278.263 241.288H298.751V317H283.099V296.304L284.659 260.58L264.223 317H253.511L233.127 260.632L234.687 296.304V317H219.087V241.288H239.471ZM356.055 301.4H328.703L323.503 317H306.915L335.099 241.288H349.555L377.895 317H361.307L356.055 301.4ZM332.915 288.764H351.843L342.327 260.424L332.915 288.764ZM400.567 304.468H433.691V317H384.967V241.288H400.567V304.468ZM117.791 360.86C117.791 368.313 116.473 374.848 113.839 380.464C111.204 386.08 107.425 390.413 102.503 393.464C97.6147 396.515 91.9987 398.04 85.6547 398.04C79.38 398.04 73.7813 396.532 68.8587 393.516C63.936 390.5 60.1227 386.201 57.4187 380.62C54.7147 375.004 53.3453 368.556 53.3107 361.276V357.532C53.3107 350.079 54.6453 343.527 57.3147 337.876C60.0187 332.191 63.8147 327.84 68.7027 324.824C73.6253 321.773 79.2413 320.248 85.5507 320.248C91.86 320.248 97.4587 321.773 102.347 324.824C107.269 327.84 111.065 332.191 113.735 337.876C116.439 343.527 117.791 350.061 117.791 357.48V360.86ZM101.983 357.428C101.983 349.489 100.561 343.457 97.7187 339.332C94.876 335.207 90.82 333.144 85.5507 333.144C80.316 333.144 76.2773 335.189 73.4347 339.28C70.592 343.336 69.1533 349.299 69.1187 357.168V360.86C69.1187 368.591 70.54 374.588 73.3827 378.852C76.2253 383.116 80.316 385.248 85.6547 385.248C90.8893 385.248 94.9107 383.203 97.7187 379.112C100.527 374.987 101.948 368.989 101.983 361.12V357.428ZM190.695 397H175.095L144.727 347.184V397H129.127V321.288H144.727L175.147 371.208V321.288H190.695V397ZM219.919 384.468H253.043V397H204.319V321.288H219.919V384.468ZM278.627 397H263.027V321.288H278.627V397ZM354.703 397H339.103L308.735 347.184V397H293.135V321.288H308.735L339.155 371.208V321.288H354.703V397ZM413.879 364.188H383.927V384.468H419.079V397H368.327V321.288H418.975V333.924H383.927V351.968H413.879V364.188Z" fill="white"/>
<path d="M46.5507 206.06H16.5987V237H0.998663V161.288H50.2947V173.924H16.5987V193.476H46.5507V206.06ZM92.1027 221.4H64.7507L59.5507 237H42.9627L71.1467 161.288H85.6027L113.943 237H97.3547L92.1027 221.4ZM68.9627 208.764H87.8907L78.3747 180.424L68.9627 208.764ZM144.935 218.228L162.095 161.288H179.463L153.099 237H136.823L110.563 161.288H127.879L144.935 218.228ZM248.103 200.86C248.103 208.313 246.785 214.848 244.151 220.464C241.516 226.08 237.737 230.413 232.815 233.464C227.927 236.515 222.311 238.04 215.967 238.04C209.692 238.04 204.093 236.532 199.171 233.516C194.248 230.5 190.435 226.201 187.731 220.62C185.027 215.004 183.657 208.556 183.623 201.276V197.532C183.623 190.079 184.957 183.527 187.627 177.876C190.331 172.191 194.127 167.84 199.015 164.824C203.937 161.773 209.553 160.248 215.863 160.248C222.172 160.248 227.771 161.773 232.659 164.824C237.581 167.84 241.377 172.191 244.047 177.876C246.751 183.527 248.103 190.061 248.103 197.48V200.86ZM232.295 197.428C232.295 189.489 230.873 183.457 228.031 179.332C225.188 175.207 221.132 173.144 215.863 173.144C210.628 173.144 206.589 175.189 203.747 179.28C200.904 183.336 199.465 189.299 199.431 197.168V200.86C199.431 208.591 200.852 214.588 203.695 218.852C206.537 223.116 210.628 225.248 215.967 225.248C221.201 225.248 225.223 223.203 228.031 219.112C230.839 214.987 232.26 208.989 232.295 201.12V197.428ZM287.467 209.284H275.039V237H259.439V161.288H287.571C296.515 161.288 303.413 163.281 308.267 167.268C313.12 171.255 315.547 176.888 315.547 184.168C315.547 189.333 314.42 193.649 312.167 197.116C309.948 200.548 306.568 203.287 302.027 205.332L318.407 236.272V237H301.663L287.467 209.284ZM275.039 196.648H287.623C291.54 196.648 294.573 195.66 296.723 193.684C298.872 191.673 299.947 188.917 299.947 185.416C299.947 181.845 298.924 179.037 296.879 176.992C294.868 174.947 291.765 173.924 287.571 173.924H275.039V196.648ZM344.043 237H328.443V161.288H344.043V237ZM413.983 173.924H390.791V237H375.191V173.924H352.311V161.288H413.983V173.924ZM468.479 204.188H438.527V224.468H473.679V237H422.927V161.288H473.575V173.924H438.527V191.968H468.479V204.188Z" fill="#FFEE2E"/>
</svg>
